<svg class="tech" width="24" height="24" viewBox="0 0 24 24" fill="none" xmlns="http://www.w3.org/2000/svg">
<path d="M12 8.667H8.667M12 8.667V2H8.667C7.7829 2 6.93501 2.35121 6.30986 2.97636C5.6847 3.60151 5.3335 4.4494 5.3335 5.3335C5.3335 6.2176 5.6847 7.06549 6.30986 7.69064C6.93501 8.31579 7.7829 8.667 8.667 8.667M12 8.667V15.333H8.667M12 8.667H15.333M8.667 8.667C7.78303 8.667 6.93527 9.01815 6.31021 9.64321C5.68515 10.2683 5.334 11.116 5.334 12C5.334 12.884 5.68515 13.7317 6.31021 14.3568C6.93527 14.9818 7.78303 15.333 8.667 15.333M8.667 15.333C8.00783 15.333 7.36347 15.5285 6.81538 15.8946C6.2673 16.2608 5.8401 16.7813 5.5878 17.3903C5.33551 17.9993 5.26944 18.6694 5.39797 19.3159C5.52649 19.9624 5.84383 20.5563 6.30986 21.0224C6.77588 21.4886 7.36967 21.8061 8.01615 21.9348C8.66262 22.0636 9.33274 21.9977 9.94179 21.7456C10.5508 21.4935 11.0714 21.0664 11.4378 20.5184C11.8042 19.9705 11.9998 19.3262 12 18.667M15.333 8.667C14.449 8.667 13.6013 9.01815 12.9762 9.64321C12.3512 10.2683 12 11.116 12 12C12 12.884 12.3512 13.7317 12.9762 14.3568C13.6013 14.9818 14.449 15.333 15.333 15.333C16.217 15.333 17.0647 14.9818 17.6898 14.3568C18.3148 13.7317 18.666 12.884 18.666 12C18.666 11.116 18.3148 10.2683 17.6898 9.64321C17.0647 9.01815 16.217 8.667 15.333 8.667ZM15.333 8.667C16.2171 8.667 17.065 8.31579 17.6901 7.69064C18.3153 7.06549 18.6665 6.2176 18.6665 5.3335C18.6665 4.4494 18.3153 3.60151 17.6901 2.97636C17.065 2.35121 16.2171 2 15.333 2" stroke="white" stroke-width="1.5" stroke-linecap="round" stroke-linejoin="round"/>
</svg>
