<svg width="32" height="32" viewBox="0 0 32 32" fill="none" xmlns="http://www.w3.org/2000/svg">
<path d="M16 2.00006C15.496 2.00006 15.004 2.18406 14.625 2.56306L11.812 5.40606C11.66 5.48806 11.532 5.60606 11.438 5.75006L2.562 14.6251C2.19793 14.9901 1.99347 15.4845 1.99347 16.0001C1.99347 16.5156 2.19793 17.0101 2.562 17.3751L14.625 29.4381C14.991 29.8002 15.4851 30.0033 16 30.0033C16.5149 30.0033 17.009 29.8002 17.375 29.4381L29.438 17.3751C29.8021 17.0101 30.0065 16.5156 30.0065 16.0001C30.0065 15.4845 29.8021 14.9901 29.438 14.6251L17.374 2.56206C17.1936 2.38201 16.9793 2.23961 16.7434 2.14313C16.5075 2.04665 16.2548 1.99802 16 2.00006ZM16 4.03106L27.969 16.0001L16 27.9691L4.031 16.0001L12.313 7.71906L14.063 9.46906C14.0181 9.6424 13.9969 9.82103 14 10.0001C14 10.7381 14.402 11.3711 15 11.7191V20.2811C14.402 20.6291 14 21.2611 14 22.0001C14 22.5305 14.2107 23.0392 14.5858 23.4143C14.9609 23.7893 15.4696 24.0001 16 24.0001C16.5304 24.0001 17.0391 23.7893 17.4142 23.4143C17.7893 23.0392 18 22.5305 18 22.0001C18 21.2621 17.598 20.6291 17 20.2811V12.4381L20.063 15.5001C19.9865 15.7957 19.9787 16.1049 20.0402 16.4039C20.1018 16.703 20.231 16.984 20.418 17.2254C20.605 17.4668 20.8448 17.6621 21.1191 17.7964C21.3933 17.9307 21.6947 18.0003 22 18.0001C22.5303 17.9998 23.0387 17.789 23.4136 17.4139C23.7884 17.0389 23.999 16.5303 23.999 16.0001C23.9994 15.6946 23.9299 15.3932 23.7956 15.1188C23.6614 14.8445 23.4661 14.6045 23.2247 14.4174C22.9833 14.2302 22.7023 14.1009 22.4031 14.0393C22.104 13.9777 21.7947 13.9855 21.499 14.0621L17.937 10.5001C18.0135 10.2045 18.0213 9.89526 17.9598 9.59618C17.8982 9.2971 17.769 9.0161 17.582 8.77473C17.395 8.53336 17.1552 8.33803 16.8809 8.20375C16.6067 8.06946 16.3053 7.99979 16 8.00006C15.8213 7.99704 15.643 8.01824 15.47 8.06306L13.72 6.31306L16 4.03106Z" fill="white"/>
</svg>
