<svg width="24" height="24" viewBox="0 0 24 24" fill="none" xmlns="http://www.w3.org/2000/svg">
<path d="M16 22.0268V19.1568C16.0375 18.68 15.9731 18.2006 15.811 17.7506C15.649 17.3006 15.3929 16.8902 15.06 16.5468C18.2 16.1968 21.5 15.0068 21.5 9.54679C21.4998 8.15062 20.9627 6.80799 20 5.79679C20.4559 4.5753 20.4236 3.22514 19.91 2.02679C19.91 2.02679 18.73 1.67679 16 3.50679C13.708 2.88561 11.292 2.88561 9.00002 3.50679C6.27002 1.67679 5.09002 2.02679 5.09002 2.02679C4.57639 3.22514 4.54416 4.5753 5.00002 5.79679C4.03014 6.81549 3.49254 8.17026 3.50002 9.57679C3.50002 14.9968 6.80002 16.1868 9.94002 16.5768C9.61101 16.9168 9.35728 17.3222 9.19532 17.7667C9.03337 18.2112 8.96682 18.6849 9.00002 19.1568V22.0268" stroke="white" stroke-width="1.5" stroke-linecap="round" stroke-linejoin="round"/>
<path d="M9 20.0264C6 20.9994 3.5 20.0264 2 17.0264" stroke="white" stroke-width="1.5" stroke-linecap="round" stroke-linejoin="round"/>
</svg>
