<svg width="40" height="35" viewBox="0 0 40 35" fill="none" xmlns="http://www.w3.org/2000/svg">
<path d="M31.5033 3.64551H8.49667C8.26468 3.64553 8.03524 3.68793 7.82306 3.77C7.61087 3.85207 7.4206 3.97199 7.26442 4.1221C7.10825 4.27221 6.98961 4.44919 6.91609 4.64172C6.84258 4.83425 6.81581 5.03809 6.8375 5.2402L9.0775 26.1425C9.10463 26.3969 9.20767 26.6406 9.3763 26.8492C9.54492 27.0578 9.77322 27.2239 10.0383 27.331L19.3017 31.0717C19.5206 31.1601 19.7589 31.2058 20 31.2058C20.2411 31.2058 20.4794 31.1601 20.6983 31.0717L29.9617 27.331C30.2269 27.224 30.4554 27.0579 30.6242 26.8493C30.793 26.6407 30.8961 26.397 30.9233 26.1425L33.1625 5.2402C33.1842 5.03809 33.1574 4.83425 33.0839 4.64172C33.0104 4.44919 32.8918 4.27221 32.7356 4.1221C32.5794 3.97199 32.3891 3.85207 32.1769 3.77C31.9648 3.68793 31.7353 3.64553 31.5033 3.64551Z" stroke="white" stroke-width="4"/>
<path d="M26.6666 8.75H13.3333L14.1666 15.3125H25.8333L25 23.3333L20 25.5208L15 23.3333L14.5833 19.6875" stroke="white" stroke-width="4" stroke-linecap="round" stroke-linejoin="round"/>
</svg>
