<svg width="32" height="32" viewBox="0 0 32 32" fill="none" xmlns="http://www.w3.org/2000/svg">
<path d="M15.994 3C15.629 3 15.264 3.09 14.949 3.27L5.04 8.99C4.4 9.36 4 10.06 4 10.8V21.18C4 21.93 4.4 22.62 5.04 22.99L7.64 24.49C8.9 25.11 9.35 25.11 9.92 25.11C11.79 25.11 12.86 23.98 12.86 22.02V11.31C12.86 11.2331 12.8294 11.1593 12.7751 11.1049C12.7207 11.0506 12.6469 11.02 12.57 11.02H11.32C11.2818 11.0195 11.2438 11.0266 11.2084 11.041C11.173 11.0554 11.1408 11.0767 11.1137 11.1037C11.0867 11.1308 11.0654 11.163 11.051 11.1984C11.0366 11.2338 11.0295 11.2718 11.03 11.31V22.01C11.03 22.89 10.12 23.75 8.65 23.02L5.93 21.45C5.88122 21.4239 5.84052 21.3849 5.81232 21.3373C5.78411 21.2897 5.76948 21.2353 5.77 21.18V10.81C5.77 10.69 5.83 10.59 5.93 10.53L15.84 4.81C15.8864 4.78067 15.9401 4.7651 15.995 4.7651C16.0499 4.7651 16.1036 4.78067 16.15 4.81L26.06 10.53C26.16 10.59 26.22 10.69 26.22 10.8V21.18C26.22 21.29 26.16 21.4 26.07 21.45L16.15 27.18C16.102 27.2046 16.0489 27.2174 15.995 27.2174C15.9411 27.2174 15.888 27.2046 15.84 27.18L13.29 25.67C13.2558 25.6448 13.2152 25.6296 13.1728 25.6261C13.1305 25.6225 13.0879 25.6308 13.05 25.65C12.34 26.05 12.21 26.1 11.55 26.33C11.39 26.38 11.14 26.48 11.64 26.76L14.95 28.72C15.27 28.9 15.63 29 15.99 29C16.36 29 16.72 28.9 17.04 28.72L26.96 22.99C27.6 22.62 28 21.93 28 21.18V10.81C28 10.06 27.6 9.37 26.96 9L17.04 3.27C16.724 3.09 16.36 3 15.994 3ZM18.66 11.006C15.83 11.006 14.14 12.206 14.14 14.206C14.14 16.376 15.82 16.974 18.54 17.244C21.79 17.564 22.04 18.046 22.04 18.686C22.04 19.786 21.15 20.256 19.06 20.256C16.43 20.256 15.85 19.595 15.66 18.295C15.6503 18.2279 15.6166 18.1665 15.5651 18.1224C15.5136 18.0783 15.4478 18.0543 15.38 18.055H14.09C14.0157 18.055 13.9445 18.0845 13.892 18.137C13.8395 18.1895 13.81 18.2607 13.81 18.335C13.81 20.005 14.72 21.995 19.06 21.995C22.2 21.995 24 20.755 24 18.595C24 16.455 22.55 15.885 19.51 15.475C16.42 15.075 16.11 14.865 16.11 14.145C16.11 13.545 16.38 12.755 18.66 12.755C20.69 12.755 21.45 13.195 21.76 14.565C21.79 14.695 21.9 14.795 22.04 14.795H23.33C23.41 14.795 23.48 14.755 23.54 14.695C23.5672 14.6658 23.5876 14.6309 23.5997 14.5929C23.6118 14.5548 23.6153 14.5146 23.61 14.475C23.41 12.115 21.84 11.006 18.66 11.006Z" fill="white"/>
</svg>
