<svg width="32" height="32" viewBox="0 0 32 32" fill="none" xmlns="http://www.w3.org/2000/svg">
<path d="M15.145 5.01438C13.731 4.93938 12.142 5.15639 10.588 5.69539C8.11801 6.55239 5.44601 7.90038 3.52501 9.65638C1.24301 11.7464 0.87701 13.5664 1.02701 14.3264C1.56101 17.0264 5.36701 18.7864 6.89101 20.0884C6.81601 20.1284 6.74601 20.1644 6.68001 20.2014C5.91601 20.5724 3.08101 22.0304 2.35501 23.5984C1.53501 25.3764 2.49101 26.6484 3.11901 26.8224C5.07901 27.3544 7.01701 26.4254 8.09401 24.8544C9.17201 23.2824 9.04201 21.2304 8.54401 20.2944C8.54001 20.2814 8.53001 20.2724 8.52501 20.2584C8.72201 20.1434 8.92301 20.0284 9.12501 19.9124C9.51401 19.6874 9.89401 19.4824 10.227 19.3024C10.039 19.7984 9.90301 20.3954 9.83201 21.2564C9.74801 22.2644 10.174 23.5684 10.727 24.0824C10.971 24.3074 11.265 24.3124 11.447 24.3124C12.094 24.3124 12.385 23.7904 12.707 23.1664C13.105 22.4054 13.457 21.5214 13.457 21.5214C13.457 21.5214 13.017 23.9124 14.223 23.9124C14.663 23.9124 15.103 23.3584 15.301 23.0744V23.0784C15.301 23.0784 15.308 23.0604 15.332 23.0234C15.379 22.9544 15.402 22.9144 15.402 22.9144V22.9004C15.58 22.6024 15.971 21.9204 16.557 20.7934C17.316 19.3364 18.041 17.5164 18.041 17.5164C18.111 17.9164 18.208 18.3104 18.332 18.6974C18.463 19.1324 18.741 19.6094 18.961 20.0724C18.783 20.3104 18.674 20.4474 18.674 20.4474C18.674 20.4514 18.677 20.4554 18.68 20.4574C18.539 20.6404 18.379 20.8374 18.215 21.0294C17.615 21.7264 16.902 22.5254 16.809 22.7544C16.696 23.0244 16.724 23.2244 16.939 23.3814C17.099 23.5004 17.382 23.5184 17.676 23.4964C18.0544 23.4769 18.4268 23.3931 18.777 23.2484C19.1131 23.1314 19.4315 22.9686 19.723 22.7644C20.309 22.3424 20.666 21.7364 20.633 20.9394C20.613 20.4994 20.467 20.0594 20.289 19.6464C20.341 19.5734 20.399 19.4964 20.449 19.4184C21.0586 18.5304 21.6082 17.6027 22.094 16.6414C22.164 17.0414 22.261 17.4354 22.384 17.8224C22.498 18.1934 22.718 18.6014 22.92 19.0004C22.049 19.6924 21.508 20.4944 21.32 21.0214C20.973 21.9974 21.247 22.4364 21.758 22.5374C21.988 22.5834 22.315 22.4794 22.558 22.3794C22.921 22.2614 23.261 22.0894 23.57 21.8694C24.156 21.4474 24.724 20.8574 24.686 20.0554C24.672 19.6934 24.57 19.3304 24.434 18.9824C25.17 18.6804 26.124 18.5154 27.344 18.6524C29.954 18.9504 30.465 20.5454 30.367 21.2094C30.269 21.8744 29.72 22.2454 29.537 22.3554C29.354 22.4654 29.299 22.5074 29.313 22.5904C29.336 22.7094 29.419 22.7044 29.574 22.6764C29.79 22.6394 30.942 22.1364 30.994 20.9024C31.069 19.3454 29.539 17.6324 26.826 17.6454H26.822C25.881 17.6454 24.952 17.8564 24.107 18.2644C23.83 17.7194 23.544 17.2424 23.498 16.8844C23.442 16.4684 23.382 16.2214 23.448 15.7274C23.513 15.2324 23.808 14.5304 23.803 14.4794C23.798 14.4294 23.737 14.1774 23.133 14.1724C22.529 14.1674 22.007 14.2864 21.947 14.4424C21.84 14.7264 21.757 15.0184 21.699 15.3164C21.591 15.8524 20.49 17.7694 19.867 18.7684C19.661 18.3784 19.488 18.0354 19.451 17.7604C19.395 17.3434 19.333 17.0964 19.398 16.6024C19.464 16.1074 19.761 15.4054 19.756 15.3544C19.751 15.3044 19.69 15.0524 19.086 15.0474C18.482 15.0424 17.959 15.1614 17.898 15.3174C17.838 15.4724 17.771 15.8384 17.65 16.1914C17.528 16.5444 16.062 19.7354 15.678 20.5644C15.5236 20.8985 15.3605 21.2287 15.189 21.5544C15.17 21.5924 15.157 21.6144 15.149 21.6334C15.162 21.6104 15.172 21.5874 15.172 21.5964C15.069 21.7934 15.008 21.9024 15.008 21.9024V21.9064C14.928 22.0534 14.838 22.1884 14.797 22.1884C14.769 22.1884 14.707 21.8024 14.811 21.2754C15.031 20.1664 15.551 18.4434 15.547 18.3834C15.542 18.3514 15.643 18.0534 15.203 17.8934C14.776 17.7424 14.623 17.9944 14.586 17.9944C14.548 17.9944 14.52 18.0864 14.52 18.0864C14.52 18.0864 14.991 16.1434 13.61 16.1434C12.746 16.1434 11.546 17.0684 10.957 17.9064C10.587 18.1034 9.78501 18.5304 8.94101 18.9844L7.97301 19.5064C7.95001 19.4834 7.93001 19.4604 7.90601 19.4374C6.22801 17.6874 3.13101 16.4494 3.26201 14.0974C3.30901 13.2414 3.61501 10.9924 9.21901 8.26039C13.813 6.02438 17.485 6.63738 18.117 8.00238C19.027 9.95038 16.153 13.5764 11.383 14.0984C9.56501 14.2954 8.72701 13.5274 8.48801 13.2704C8.24001 13.0004 8.20101 12.9854 8.10801 13.0354C7.95201 13.1174 8.05101 13.3564 8.10801 13.4984C8.24801 13.8604 8.87501 14.4274 9.87301 14.7484C10.75 15.0284 12.763 15.2634 15.342 14.2884C18.238 13.1964 20.45 10.2324 19.789 7.68938C19.369 6.07438 17.5 5.13838 15.145 5.01438ZM13.607 17.2894C13.681 17.2944 13.735 17.3224 13.766 17.3734C13.93 17.6444 13.196 19.6394 13.008 20.0884C12.708 20.8084 12.074 22.6424 11.689 22.5454C11.361 22.4634 11.159 21.0654 11.623 19.6894C11.857 18.9974 12.354 18.1734 12.65 17.8524C13.005 17.4634 13.388 17.2724 13.607 17.2894ZM23.347 19.5514C23.403 19.7114 23.432 19.8794 23.436 20.0474C23.431 21.0794 22.676 21.4634 22.223 21.6234C22.129 21.5594 22.141 21.3434 22.455 20.6734C22.577 20.4134 22.859 19.9734 23.347 19.5514ZM7.60501 20.6884C7.99401 22.0814 7.61901 23.3094 6.71001 24.2784C5.84801 25.1984 4.63801 25.5474 4.11801 25.2544C3.56001 24.9374 3.78101 23.5804 4.84501 22.5984C5.49201 22.0024 6.32701 21.4524 6.88001 21.1134C7.00701 21.0404 7.18801 20.9304 7.41301 20.7974C7.43141 20.786 7.45044 20.7756 7.47001 20.7664C7.51201 20.7394 7.55801 20.7164 7.60501 20.6884ZM19.382 20.8484C19.382 20.8714 19.388 20.8954 19.388 20.9224C19.382 21.7424 18.574 22.2964 18.208 22.5164H18.212V22.5184C18.085 22.5824 17.967 22.6224 17.912 22.5904C17.869 22.5674 17.964 22.4804 17.964 22.4804C17.964 22.4804 18.615 21.7964 18.872 21.4844C19.022 21.3014 19.195 21.0864 19.382 20.8484Z" fill="white"/>
</svg>
