<svg width="101" height="62" viewBox="0 0 101 62" fill="none" xmlns="http://www.w3.org/2000/svg">
<ellipse cx="50" cy="31" rx="32" ry="31" fill="black"/>
<path d="M100.5 30C100.5 36.0352 95.1063 41.6617 86.0016 45.8084C76.9417 49.9347 64.3905 52.5 50.5 52.5C36.6095 52.5 24.0582 49.9347 14.9983 45.8084C5.89366 41.6617 0.5 36.0352 0.5 30C0.5 23.9648 5.89366 18.3383 14.9983 14.1916C24.0582 10.0653 36.6095 7.5 50.5 7.5C64.3905 7.5 76.9417 10.0653 86.0016 14.1916C95.1063 18.3383 100.5 23.9648 100.5 30Z" stroke="white"/>
<ellipse cx="50" cy="16.5" rx="26" ry="16.5" fill="black"/>
</svg>
